HIERARCHY
ROOT Hips
{
	OFFSET -0.001795 -0.223333 0.028219
	CHANNELS 6 Xposition Yposition Zposition Zrotation Yrotation Xrotation 
	JOINT LeftUpLeg
	{
		OFFSET 0.069520 -0.091406 -0.006815
		CHANNELS 3 Zrotation Yrotation Xrotation
		JOINT LeftLeg
		{
			OFFSET 0.034277 -0.375199 -0.004496
			CHANNELS 3 Zrotation Yrotation Xrotation
			JOINT LeftFoot
			{
				OFFSET -0.013596 -0.397961 -0.043693
				CHANNELS 3 Zrotation Yrotation Xrotation
				JOINT LeftToe
				{
					OFFSET 0.026358 -0.055791 0.119288
					CHANNELS 3 Zrotation Yrotation Xrotation
					End Site
					{
						OFFSET 0.000000 0.000000 0.000000
					}
				}
			}
		}
	}
	JOINT RightUpLeg
	{
		OFFSET -0.067670 -0.090522 -0.004320
		CHANNELS 3 Zrotation Yrotation Xrotation
		JOINT RightLeg
		{
			OFFSET -0.038290 -0.382569 -0.008850
			CHANNELS 3 Zrotation Yrotation Xrotation
			JOINT RightFoot
			{
				OFFSET 0.015774 -0.398415 -0.042312
				CHANNELS 3 Zrotation Yrotation Xrotation
				JOINT RightToe
				{
					OFFSET -0.025372 -0.048144 0.123348
					CHANNELS 3 Zrotation Yrotation Xrotation
					End Site
					{
						OFFSET 0.000000 0.000000 0.000000
					}
				}
			}
		}
	}
	JOINT Spine
	{
		OFFSET -0.002533 0.108963 -0.026696
		CHANNELS 3 Zrotation Yrotation Xrotation
		JOINT Spine1
		{
			OFFSET 0.005487 0.135180 0.001092
			CHANNELS 3 Zrotation Yrotation Xrotation
			JOINT Spine2
			{
				OFFSET 0.001457 0.052922 0.025425
				CHANNELS 3 Zrotation Yrotation Xrotation
				JOINT Neck
				{
					OFFSET -0.002778 0.213870 -0.042857
					CHANNELS 3 Zrotation Yrotation Xrotation
					JOINT Head
					{
						OFFSET 0.005152 0.064970 0.051349
						CHANNELS 3 Zrotation Yrotation Xrotation
						End Site
						{
							OFFSET 0.000000 0.000000 0.000000
						}
					}
				}
				JOINT LeftShoulder
				{
					OFFSET 0.078845 0.121749 -0.034090
					CHANNELS 3 Zrotation Yrotation Xrotation
					JOINT LeftArm
					{
						OFFSET 0.090977 0.030469 -0.008868
						CHANNELS 3 Zrotation Yrotation Xrotation
						JOINT LeftForeArm
						{
							OFFSET 0.259612 -0.012772 -0.027456
							CHANNELS 3 Zrotation Yrotation Xrotation
							JOINT LeftHand
							{
								OFFSET 0.249234 0.008986 -0.001171
								CHANNELS 3 Zrotation Yrotation Xrotation
								End Site
								{
									OFFSET 0.000000 0.000000 0.000000
								}
							}
						}
					}
				}
				JOINT RightShoulder
				{
					OFFSET -0.081759 0.118833 -0.038615
					CHANNELS 3 Zrotation Yrotation Xrotation
					JOINT RightArm
					{
						OFFSET -0.096012 0.032551 -0.009143
						CHANNELS 3 Zrotation Yrotation Xrotation
						JOINT RightForeArm
						{
							OFFSET -0.253742 -0.013329 -0.021401
							CHANNELS 3 Zrotation Yrotation Xrotation
							JOINT RightHand
							{
								OFFSET -0.255298 0.007772 -0.005559
								CHANNELS 3 Zrotation Yrotation Xrotation
								End Site
								{
									OFFSET 0.000000 0.000000 0.000000
								}
							}
						}
					}
				}
			}
		}
	}
}
MOTION
Frames: 12
Frame Time: 0.050000
0.077589 0.885527 -0.090681 1.736417 -1.272884 3.082216 5.423106 -1.438254 -33.236891 -3.245712 0.449504 49.612108 4.059971 9.068648 2.061710 0.000000 0.000000 0.000000 -9.614826 1.043615 -36.218589 2.945562 0.543031 43.300310 -2.029278 -6.654752 3.916404 0.000000 0.000000 0.000000 -0.081268 -0.721890 19.268714 4.098102 -2.074748 1.970962 -1.788306 -6.132937 9.574320 -4.676958 3.337128 -14.745968 0.000000 0.000000 0.000000 13.099161 -11.306929 2.783070 -17.106796 -33.454291 1.694686 113.792851 -8.365919 -5.961647 0.000000 0.000000 0.000000 -22.731985 10.354922 4.226171 18.737567 50.046383 2.423872 -114.922547 5.143188 -7.457564 0.000000 0.000000 0.000000 
0.078320 0.886150 -0.091237 1.613403 -1.274315 2.851500 5.350626 -1.438284 -32.752185 -3.162851 0.392802 49.071851 4.205586 9.342135 2.016785 0.000000 0.000000 0.000000 -9.308754 1.107623 -35.460899 2.862114 0.568893 42.429184 -2.323968 -7.271035 3.747346 0.000000 0.000000 0.000000 -0.184130 -0.708255 19.421284 4.081973 -2.068991 1.976707 -1.622637 -5.665676 9.798941 -3.995670 2.941387 -15.211290 0.000000 0.000000 0.000000 12.952892 -11.184492 2.799194 -17.087477 -33.039763 1.592208 114.254718 -8.880633 -7.110969 0.000000 0.000000 0.000000 -22.678552 10.630968 4.159193 17.490833 50.810393 2.102372 -114.276254 4.646770 -6.350910 0.000000 0.000000 0.000000 
0.078946 0.886277 -0.091508 1.465757 -1.429798 2.856230 5.414654 -1.392791 -32.443080 -3.180150 0.438053 48.646319 4.319289 9.486175 1.687578 0.000000 0.000000 0.000000 -8.800727 1.258759 -35.079992 2.747696 0.638131 41.776015 -2.539131 -7.662668 3.402968 0.000000 0.000000 0.000000 -0.240326 -0.680602 19.062400 3.917249 -2.001064 2.212446 -1.336617 -5.218225 9.788674 -3.749093 2.819398 -14.901688 0.000000 0.000000 0.000000 13.148312 -10.787538 2.718689 -17.362147 -32.837552 1.596694 114.167150 -9.440997 -8.080640 0.000000 0.000000 0.000000 -22.913172 10.865132 4.127252 16.808174 51.299439 1.948744 -113.598130 4.642497 -6.057480 0.000000 0.000000 0.000000 
0.079449 0.885550 -0.091576 1.224326 -1.552995 2.738045 5.464478 -1.343898 -31.846391 -3.088203 0.407961 48.194388 4.621141 9.952459 1.109234 0.000000 0.000000 0.000000 -8.409534 1.357880 -34.467918 2.779332 0.629421 41.241378 -2.748409 -8.095103 3.233005 0.000000 0.000000 0.000000 -0.364069 -0.656141 19.096663 3.914569 -1.964891 1.680612 -1.172318 -4.961127 10.556747 -3.387639 2.606023 -15.660777 0.000000 0.000000 0.000000 13.622412 -10.743312 2.659448 -17.395778 -32.310250 1.501669 114.391996 -9.548153 -8.373748 0.000000 0.000000 0.000000 -23.232366 11.231095 4.100955 15.405883 51.591712 1.404820 -113.050781 4.219193 -5.290724 0.000000 0.000000 0.000000 
0.079772 0.884388 -0.091249 0.916692 -1.501382 2.420449 5.658327 -1.274992 -31.287347 -2.915778 0.287122 48.146629 4.689116 9.983919 0.650455 0.000000 0.000000 0.000000 -7.920726 1.461706 -34.002459 2.737481 0.642331 41.109253 -2.875572 -8.360531 3.166408 0.000000 0.000000 0.000000 -0.439108 -0.649051 19.212866 3.897139 -1.973844 1.900340 -0.884991 -4.741784 10.385966 -3.247784 2.542003 -15.977625 0.000000 0.000000 0.000000 13.850855 -10.746419 2.660958 -17.429836 -32.065406 1.471416 114.392927 -9.841776 -8.931695 0.000000 0.000000 0.000000 -23.484914 11.630573 4.109233 14.401251 51.580647 1.062969 -112.484563 4.107975 -5.025384 0.000000 0.000000 0.000000 
0.079895 0.883046 -0.090610 0.664995 -1.234628 2.210738 5.766594 -1.258522 -30.938327 -2.691630 0.083455 48.310759 4.813603 10.236882 0.647615 0.000000 0.000000 0.000000 -7.648903 1.480115 -33.512493 2.607941 0.657865 40.948175 -2.751643 -8.056997 3.166209 0.000000 0.000000 0.000000 -0.610635 -0.637408 19.501366 4.072578 -2.051654 1.695229 -0.787706 -4.852920 10.682775 -2.946460 2.366650 -17.524373 0.000000 0.000000 0.000000 14.279500 -10.391450 2.533092 -17.149708 -32.015359 1.415607 114.102745 -9.558590 -8.478251 0.000000 0.000000 0.000000 -23.840224 11.666130 4.093950 13.429746 51.463595 0.649625 -112.038337 3.955186 -4.825373 0.000000 0.000000 0.000000 
0.079865 0.881904 -0.089704 0.343895 -0.887049 2.097180 6.046076 -1.211960 -30.796558 -2.323651 -0.223924 48.559669 4.795931 10.162375 0.461270 0.000000 0.000000 0.000000 -7.336961 1.501473 -33.041844 2.629542 0.581014 40.770205 -2.803622 -8.020435 2.719915 0.000000 0.000000 0.000000 -0.620175 -0.651674 19.519401 4.104601 -2.070338 1.675715 -0.508211 -4.933536 10.785802 -2.650689 2.195735 -17.860004 0.000000 0.000000 0.000000 14.368408 -10.295097 2.504678 -17.224521 -31.798072 1.394606 114.004706 -9.474936 -8.376526 0.000000 0.000000 0.000000 -23.865284 11.624645 4.071501 13.631704 51.006185 0.726962 -112.373640 4.592026 -5.738870 0.000000 0.000000 0.000000 
0.079843 0.881099 -0.088597 0.022618 -0.493729 2.073524 6.194451 -1.204255 -30.622878 -2.042551 -0.492674 48.664821 4.771788 10.128939 0.506848 0.000000 0.000000 0.000000 -7.033914 1.527247 -32.795976 2.544158 0.553140 40.751937 -2.538792 -7.416258 2.821806 0.000000 0.000000 0.000000 -0.668039 -0.656397 19.434684 4.325110 -2.189030 1.748163 -0.355204 -4.911660 10.701095 -2.184462 1.939287 -18.096267 0.000000 0.000000 0.000000 14.528847 -9.941711 2.437681 -17.646542 -31.949506 1.483685 114.034204 -9.416756 -8.396624 0.000000 0.000000 0.000000 -23.744736 11.734335 4.049557 14.280382 50.165055 1.010805 -112.772749 5.420541 -6.857856 0.000000 0.000000 0.000000 
0.079876 0.880915 -0.087443 -0.159822 -0.051514 2.128371 6.301281 -1.219711 -30.642135 -1.790109 -0.753703 48.752686 4.709595 9.982658 0.386760 0.000000 0.000000 0.000000 -6.904260 1.504515 -32.556572 2.244020 0.621621 40.625870 -2.308275 -6.775374 2.568584 0.000000 0.000000 0.000000 -0.640363 -0.675770 19.356404 4.392250 -2.213952 1.587158 -0.346164 -5.044046 10.897290 -2.039444 1.861146 -18.212390 0.000000 0.000000 0.000000 14.317238 -9.682098 2.397446 -17.942149 -31.936869 1.515386 114.424359 -9.264727 -8.297033 0.000000 0.000000 0.000000 -23.267873 11.445922 3.995390 15.254965 49.732997 1.379462 -113.261255 6.712359 -8.683312 0.000000 0.000000 0.000000 
0.080127 0.881198 -0.086426 -0.380575 0.599227 2.160172 6.406047 -1.262078 -30.836433 -1.655847 -1.004989 49.084253 4.463123 9.513507 0.483386 0.000000 0.000000 0.000000 -6.733610 1.474578 -32.404811 2.110557 0.574041 40.642938 -2.141739 -6.361191 2.579087 0.000000 0.000000 0.000000 -0.505253 -0.722901 19.289113 4.450601 -2.254680 1.658029 -0.249604 -5.084763 10.743775 -1.413726 1.519106 -18.377582 0.000000 0.000000 0.000000 13.989858 -9.531501 2.420336 -18.283297 -32.268479 1.603934 114.654969 -8.932609 -8.036769 0.000000 0.000000 0.000000 -22.955483 11.250440 3.932158 16.939685 48.900749 2.035845 -114.217003 7.483674 -9.767136 0.000000 0.000000 0.000000 
0.080581 0.881751 -0.085707 -0.606804 1.362494 2.290898 6.437336 -1.335719 -31.020273 -1.407508 -1.350033 49.310522 4.339860 9.337985 0.722172 0.000000 0.000000 0.000000 -6.658327 1.407969 -32.216156 2.001789 0.486811 40.331893 -2.015984 -6.041213 2.598284 0.000000 0.000000 0.000000 -0.243919 -0.795517 19.174279 4.534123 -2.291854 1.530566 -0.275307 -5.161079 10.689759 -0.844323 1.216948 -18.476887 0.000000 0.000000 0.000000 13.581951 -9.565406 2.493848 -18.578774 -32.552015 1.672662 115.359582 -8.806591 -8.221970 0.000000 0.000000 0.000000 -22.415065 10.879184 3.832877 18.160434 48.368680 2.522117 -114.646366 8.142570 -10.558974 0.000000 0.000000 0.000000 
0.081351 0.882333 -0.085251 -0.850437 2.045606 2.328856 6.484932 -1.400798 -31.262203 -1.046213 -1.753528 49.648656 4.132797 8.934339 0.740174 0.000000 0.000000 0.000000 -6.535125 1.364616 -32.066091 1.923666 0.405689 40.223679 -2.065078 -6.100958 2.510520 0.000000 0.000000 0.000000 -0.076055 -0.839546 18.930500 4.605857 -2.344194 1.653889 -0.244885 -4.795830 10.520941 -0.012019 0.790820 -18.249937 0.000000 0.000000 0.000000 13.173674 -9.568803 2.601037 -18.965050 -33.282424 1.803530 115.826341 -8.563875 -8.463174 0.000000 0.000000 0.000000 -21.877913 10.703065 3.689381 19.366166 47.811612 3.079773 -114.810862 8.580472 -10.740959 0.000000 0.000000 0.000000 
